<?xml version="1.0" standalone="no"?><svg xmlns="http://www.w3.org/2000/svg" viewBox="0 0 1440 320"><path fill="#0099ff" fill-opacity="1" d="M0,224L12.6,218.7C25.3,213,51,203,76,208C101.1,213,126,235,152,250.7C176.8,267,202,277,227,240C252.6,203,278,117,303,117.3C328.4,117,354,203,379,213.3C404.2,224,429,160,455,122.7C480,85,505,75,531,90.7C555.8,107,581,149,606,160C631.6,171,657,149,682,133.3C707.4,117,733,107,758,96C783.2,85,808,75,834,64C858.9,53,884,43,909,53.3C934.7,64,960,96,985,128C1010.5,160,1036,192,1061,208C1086.3,224,1112,224,1137,224C1162.1,224,1187,224,1213,192C1237.9,160,1263,96,1288,69.3C1313.7,43,1339,53,1364,74.7C1389.5,96,1415,128,1427,144L1440,160L1440,320L1427.4,320C1414.7,320,1389,320,1364,320C1338.9,320,1314,320,1288,320C1263.2,320,1238,320,1213,320C1187.4,320,1162,320,1137,320C1111.6,320,1086,320,1061,320C1035.8,320,1011,320,985,320C960,320,935,320,909,320C884.2,320,859,320,834,320C808.4,320,783,320,758,320C732.6,320,707,320,682,320C656.8,320,632,320,606,320C581.1,320,556,320,531,320C505.3,320,480,320,455,320C429.5,320,404,320,379,320C353.7,320,328,320,303,320C277.9,320,253,320,227,320C202.1,320,177,320,152,320C126.3,320,101,320,76,320C50.5,320,25,320,13,320L0,320Z"></path></svg>